<?xml version="1.0" encoding="UTF-8"?>
<svg version="1.1" viewBox="0 0 2048 1220" width="1280" height="1280" xmlns="http://www.w3.org/2000/svg">
<path transform="translate(0)" d="m0 0h615v606h605l1 1v613h-615v-606h-606z" fill="#05593B"/>
<path transform="translate(615,614)" d="m0 0h597v597l-1 1h-596z" fill="#05593B"/>
<path transform="translate(218,142)" d="m0 0h45l23 3 17 5 16 8 11 8 9 9 9 14 5 14 2 10v26l-4 16-7 13-9 10-8 6-14 7-12 4 16 4 12 5 13 9 10 10 9 14 5 12 4 16 1 18-2 20-5 19-8 16-8 10-7 7-14 9-11 5-20 6-18 3-30 2h-150l-2-7v-329l1-1z" fill="#FDFDFD"/>
<path transform="translate(659,748)" d="m0 0h166l21 3 16 5 16 8 11 8 9 9 7 11 5 11 4 17v23l-4 17-6 12-9 11-13 9-11 5-10 3-1 1 14 3 16 7 12 9 9 9 9 14 6 15 3 14v29l-4 20-5 13-6 11-11 12-8 7-14 8-16 6-17 4-14 2-13 1h-166v-336z" fill="#FDFDFD"/>
<path transform="translate(2030,225)" d="m0 0 5 2 6 8 1 9-4 11-6 8-10 9-7 4h-2l6 14 3 12v27l-4 16-8 16-8 11-8 8-13 9-17 8-18 5-15 2h-28l-20-3-14-4-2 4-5 9-1 6 3 9 4 4 9 4 16 3h27l43-4h30l17 3 13 5 9 6 8 8 6 12 2 7v22l-5 16-6 11-8 10-10 10-15 10-19 9-20 6-22 4-10 1h-33l-21-3-18-5-16-7-12-8-10-9-7-10-5-12-1-10 2-11 6-10 11-11 13-9-13-8-6-5-6-10-2-8v-8l2-9 6-11 10-11 15-11-6-7-8-10-8-16-4-16v-24l4-16 5-12 7-11 9-10 10-9 13-8 14-6 14-4 13-2h27l27 4 19 4h9l13-4 17-9zm-114 40-13 4-9 7-7 8-6 12-3 12v23l4 15 7 12 8 8 10 5 7 2h14l13-4 10-7 7-8 7-14 2-9 1-13-2-15-4-12-7-11-9-8-10-5-8-2zm43 210-44 4h-22l-19-1-7 8-4 9-1 5v8l4 11 8 9 10 6 15 5 13 2h26l18-3 12-4 12-6 10-8 6-8 3-10v-7l-3-8-6-7-10-4-5-1z" fill="#FDFDFD"/>
<path transform="translate(1052,840)" d="m0 0h33l18 2 17 4 13 5 11 7 9 8 7 10 5 11 3 12 1 7 1 58v87l2 18 4 11 1 5h-61l-4-11-1-9-17 11-15 7-16 5-19 3h-21l-16-3-16-6-11-7-10-9-8-10-6-13-4-15v-24l4-16 6-11 8-10 9-8 15-9 15-6 26-6 55-11 19-5h2l-1-13-3-9-5-6-10-5-11-3-18-1-18 2-11 4-5 4-5 10-2 15h-29l-26-1-4-2 2-17 4-13 7-12 9-10 12-9 16-8 18-5z" fill="#FDFDFD"/>
<path transform="translate(0)" d="m0 0h615v606h605l1 1v613h-615v-606h-606zm9 9v597h597v-597zm606 605v598h596l1-1v-597z" fill="#FDFDFD"/>
<path transform="translate(1459,747)" d="m0 0 9 1 6 5 2 6v26l-1 30-1 56v101l1 37 2 21 3 9 8 4 15 4 6 5v9l-4 6-14 7-24 8-17 4-7 1h-16l-5-4-2-7v-22l-28 20-15 8-13 4-13 2h-15l-14-2-18-6-13-7-10-8-12-12-10-15-7-16-5-17-2-12-1-11v-20l2-18 5-21 6-16 7-13 10-14 9-10 14-11 19-10 16-5 12-2h30l19 4 20 8 4 2 1-7v-33l-2-10-4-6-3-3-16-5-6-3-4-5v-8l3-5 6-5 15-7 22-7 19-4zm-104 127-13 4-10 6-8 7-7 10-7 16-3 12-2 17v18l2 17 5 19 8 17 8 10 7 7 14 8 14 3h9l15-3 12-6 9-8 7-14 3-15v-88l-2-9-4-6-9-9-14-8-13-4-6-1z" fill="#FDFDFD"/>
<path transform="translate(1186,141)" d="m0 0h19l5 5 2 8v18l-2 49v106l2 3 5-1 10-7 11-9 16-15 9-9 6-9-1-5-11-6-4-5-1-6 2-7 7-6 9-3 13-2h47l16 4 6 4 3 5v9l-3 5-6 4-24 7-10 5-10 8-12 11-15 15-4 6 1 6 8 12 16 21 11 14 13 16 11 13 9 10 7 8 9 9 11 7 22 8 6 5 2 4-1 9-4 6-8 4-15 3h-38l-9-2-9-6-10-10-13-17-12-15-13-17-13-16-11-14-9-11-12-14-6-5-3 1-1 2v55l2 21 3 10 5 4 14 6 5 5 1 3v7l-4 6-8 4-17 3h-57l-13-2-10-4-5-6-1-8 3-6 7-4 10-5 4-5 3-9 2-19v-122l-1-67-2-20-3-8-6-4-21-7-5-5v-9l4-6 16-8 29-9z" fill="#FDFDFD"/>
<path transform="translate(1684,235)" d="m0 0h22l17 4 16 8 10 8 9 9 8 13 5 13 3 14 2 23 1 102 3 9 4 5 16 8 4 5v8l-4 7-5 3-14 3-11 1h-47l-18-2-11-4-4-5-1-2v-7l3-6 20-10 3-4 3-12 1-10v-65l-2-24-3-16-5-13-6-8-10-6-8-2h-16l-12 4-9 6-9 9-7 14-4 17-2 22v73l3 12 4 4 17 8 4 5 1 8-4 7-8 4-17 3h-57l-13-2-9-3-6-7-1-9 3-5 6-4 9-4 6-5 3-9 1-6v-101l-2-26-3-8-3-3-16-6-7-4-2-3v-9l7-8 15-7 21-7 21-5 6-1h13l6 4 2 8 1 21 8-6 7-7 14-11 14-7z" fill="#FDFDFD"/>
<path transform="translate(977,235)" d="m0 0h33l19 3 16 5 11 6 10 8 8 11 4 9 3 13 1 9 1 22 1 104 3 9 4 4 17 5 6 5v10l-5 8-8 7-13 6-11 3-7 1h-14l-10-5-7-6-7-8-5-5-6 2-16 10-15 7-16 4-7 1h-21l-15-3-14-5-11-7-10-9-9-13-6-16-2-12v-16l3-16 5-12 6-10 9-10 10-8 16-8 16-5 17-3 11-1h22l29 3 5 1-1-34-4-16-6-8-6-5-11-4h-13l-12 3-10 6-10 9-8 9-7 8-7 6-8 3h-15l-6-3-5-6-3-8v-10l3-10 7-10 10-9 10-6 18-7 18-4zm5 125-16 4-10 5-10 10-5 11-1 5v16l4 12 6 8 7 6 11 5 10 2h17l13-3 10-6 6-9 3-9 1-6v-47l-8-2-15-2z" fill="#FDFDFD"/>
<path transform="translate(746,235)" d="m0 0h28l18 3 15 5 15 8 13 11 9 11 8 14 5 15 3 19v20l-3 9-5 4-3 1-12 1-134 1-3 2-1 3v15l4 16 8 16 10 12 11 8 14 7 11 3 8 1h13l15-3 13-5 12-7 9-7 11-8 3-1h11l5 5 2 4-1 8-6 10-9 10-13 11-17 11-17 8-19 5-18 2-21-1-15-3-15-5-16-8-14-10-15-15-9-13-8-15-6-18-3-16-1-19 2-22 5-21 8-19 10-16 13-15 15-12 18-10 17-6zm6 30-14 2-10 4-9 6-7 7-6 10-4 10-2 11v7l3 5 2 1h96l5-4v-15l-3-10-5-10-9-10-9-7-12-5z" fill="#FDFDFD"/>
<path transform="translate(534,234)" d="m0 0h8l1 1v58l-23 3-13 4-12 6-9 7-9 13-5 12-2 8-1 9-1 124-31 1h-26l-1-1v-239h58v32h2l2-6 8-10 9-8 15-8 14-4z" fill="#FDFDFD"/>
<path transform="translate(1476,235)" d="m0 0h11l5 4 2 4 1 6v22l-2 65v90l3 12 4 5 16 7 5 5 1 3v7l-4 6-8 4-17 3h-57l-17-3-8-5-3-4-1-6 2-7 8-5 12-6 4-7 2-9 1-19-1-93-2-18-3-8-5-3-18-7-4-4-1-2v-7l4-6 9-6 20-8 25-7z" fill="#FDFDFD"/>
<path transform="translate(161,325)" d="m0 0h89l16 2 12 4 10 6 8 8 6 13 2 10v16l-3 13-6 10-8 7-10 5-11 3-19 2h-86l-1-1v-97z" fill="#05593B"/>
<path transform="translate(720,931)" d="m0 0h93l16 3 12 5 6 4 5 5 4 5 4 8 3 16v11l-3 14-5 9-4 5-11 7-12 4-13 2h-96v-97z" fill="#05593B"/>
<path transform="translate(161,193)" d="m0 0h87l16 4 10 5 8 8 5 10 2 8v13l-3 12-6 9-9 8-12 5-16 3h-82l-1-22v-62z" fill="#05593B"/>
<path transform="translate(719,799)" d="m0 0h90l15 4 10 6 7 7 5 10 2 10v8l-2 11-5 10-6 7-12 7-16 4-12 1h-75l-1-1z" fill="#05593B"/>
<path transform="translate(9,9)" d="m0 0h44l215 1v1l-24 1-8 1h-15l-45 2h-12l-6 1-10-1-36 1-25 2-3 1v5l-2 1-1 5-2 5-2-1v-2h-2v2h-4l-1 4h-2v-2h-2l-1 4-1 3-7 1-4-2h-4l-1-3-2 1 2 3-5 2-2 3h-2l-2 9-3 7-2 4h-2l-2 10-3 10-1 5h-2v10l-1 2v10l-3 25v20l-2 30v20l-1 57v50l-1 45v26l-1 124v27l-1 40v13l-1 4v9h-2z" fill="#05463A"/>
<path transform="translate(1110,966)" d="m0 0h1v40l-4 11-6 8-8 7-12 6-13 4-16 2-16-2-12-6-5-4-5-8-1-3v-16l5-10 9-7 13-5 42-9 20-5z" fill="#05593B"/>
<path transform="translate(1210,623)" d="m0 0h1v588h-21v-1h18l-2-8-9 2h-8l-22-3v2l-28-2-19-2-3-1-10-1-2-3 1-3 10-2 13-3 11-2 12-5 5-3 5-1 5-3 1-2h2l1-4 2-5 1-4 3-9 3-10 3-3 1-6 2-7 3-9 3-8 5-2 1 4 2 9 2 16 1 2 2-7h2l-1-7v-111l1-11 2-104v-107z" fill="#05463A"/>
<path transform="translate(1453,148)" d="m0 0h16l11 4 6 4 8 9 3 10-1 11-5 10-9 8-9 4-9 2h-13l-13-4-8-6-5-6-3-8v-11l4-10 8-9 14-7z" fill="#FDFDFD"/>
<path transform="translate(1141,661)" d="m0 0h12l8 4 5 6 2 7-7 2h-7l-3-6-6-1-5 1-4 10-2 8 6-4 3-1h11l8 4 5 7 2 8-1 11-4 7-7 6-5 2h-14l-8-4-6-9-3-10v-21l3-12 6-9 7-5z" fill="#FDFDFD"/>
<path transform="translate(524,60)" d="m0 0h37v9l-1 3-11 1h-15l-1 12 5-3h12l8 4 6 8 2 8-1 11-5 10-9 6-8 2h-8l-9-3-8-7-2-5v-6l13-1 5 8 4 2 7-1 4-5 1-3v-9l-4-6-2-1h-9l-5 5h-11l-1-1 1-11 4-26z" fill="#FDFDFD"/>
<path transform="translate(1071,662)" d="m0 0h38v7l-1 5h-26l-2 11-1 2 6-3h14l8 5 5 7 1 4v14l-3 7-6 7-9 4h-16l-8-4-6-7-2-9 6-1h8l5 8 2 1h8l5-5 1-4v-7l-3-7-5-2-8 1-4 5h-9l-3-1 1-14 3-23z" fill="#FDFDFD"/>
<path transform="translate(481,59)" d="m0 0h8l9 3 7 6 2 4v11l-4 6-4 4 6 4 3 5 1 4v7l-3 8-8 7-10 3h-9l-9-3-7-6-3-7v-8h13l2 7 5 4h8l5-5 1-5-3-7-7-2h-4l-1-5v-5l1-1 9-2 3-3v-6l-2-4-6-2-5 2-3 5-1 4-10-1-4-1 1-6 3-6 8-7z" fill="#FDFDFD"/>
<path transform="translate(103,138)" d="m0 0h11l18 1 26 1h26l49 1v1l-15 1-121 1-1 176-1 111h-1l-1-106-1-75v-19l-1-24v-62l1-3h2l1-3z" fill="#05483A"/>
<path transform="translate(1171,929)" d="m0 0h1l3 23v5l1 4 1 25v21l-1 11-1 41 1 5v9l2 6-1 4-5-10-2-10-1-12v-39l1-14z" fill="#05473A"/>
<path transform="translate(160,194)" d="m0 0h10l-4 2-2 2 1 15v52l-1 12h-3l-1-21z" fill="#05493A"/>
<path transform="translate(1143,698)" d="m0 0 8 1 4 6v10l-4 5-8 1-5-3-2-3v-11l4-5z" fill="#055A3C"/>
<path transform="translate(162,326)" d="m0 0 2 1-1 2 1 37v29l-1 26v2h-3v-94z" fill="#054C3A"/>
<path transform="translate(1127,1086)" d="m0 0h51l-1 2-7 1-38-1-5-1z" fill="#06463A"/>
</svg>
