<?xml version="1.0" standalone="no"?>
<!DOCTYPE svg PUBLIC "-//W3C//DTD SVG 20010904//EN"
"http://www.w3.org/TR/2001/REC-SVG-20010904/DTD/svg10.dtd">
<svg version="1.0" xmlns="http://www.w3.org/2000/svg"
width="336.000000pt" height="215.000000pt" viewBox="0 0 336.000000 215.000000"
preserveAspectRatio="xMidYMid meet">

<g transform="translate(0.000000,215.000000) scale(0.100000,-0.100000)"
fill="#000000" stroke="none">
<path d="M320 1375 l0 -435 430 0 430 0 0 -425 0 -425 430 0 430 0 -2 432 -3
433 -423 0 -422 0 0 428 0 427 -435 0 -435 0 0 -435z m711 338 c6 -48 2 -77
-13 -87 -14 -8 -21 -7 -35 6 -9 10 -13 21 -9 25 5 5 11 2 13 -4 6 -18 33 -16
33 2 0 8 -5 15 -11 15 -8 0 -9 4 0 13 14 18 2 30 -16 16 -10 -9 -13 -8 -13 5
0 10 9 16 25 16 14 0 25 -3 26 -7z m59 -5 l-25 -11 25 -6 c30 -8 35 -48 8 -65
-14 -8 -22 -7 -35 7 -17 18 -17 18 10 11 25 -6 28 -4 25 12 -2 13 -11 18 -24
16 -18 -2 -21 1 -17 23 4 19 11 25 32 24 l26 0 -25 -11z m-370 -107 c59 -12
100 -56 100 -110 0 -43 -31 -91 -58 -91 -11 0 -5 -7 15 -20 51 -31 66 -62 61
-127 -8 -99 -59 -123 -255 -123 l-123 0 0 234 c0 178 3 236 13 239 20 9 199 7
247 -2z m370 -166 c0 -42 -2 -45 -26 -45 -15 0 -38 -12 -55 -29 -28 -29 -29
-32 -29 -130 l0 -101 -40 0 -40 0 0 170 0 170 40 0 c37 0 40 -2 40 -27 l0 -27
15 22 c13 18 53 37 88 41 4 1 7 -19 7 -44z m770 -577 l-25 -11 25 -6 c35 -9
36 -54 1 -59 -13 -2 -28 2 -35 8 -8 9 -4 10 17 5 23 -6 27 -4 27 15 0 17 -4
21 -20 17 -16 -4 -20 0 -20 19 0 20 5 24 28 23 l27 0 -25 -11z m105 2 c4 -6
-3 -9 -16 -7 -12 1 -24 -3 -26 -10 -3 -7 3 -10 15 -6 14 3 22 -1 27 -16 8 -28
-1 -41 -30 -41 -33 0 -49 52 -23 78 15 15 45 16 53 2z m-420 -124 c38 -16 65
-60 65 -107 0 -23 -9 -40 -35 -64 l-34 -33 25 -6 c63 -16 86 -146 34 -201 -34
-36 -78 -45 -222 -45 l-128 0 0 235 0 235 130 0 c90 0 141 -4 165 -14z m374
-131 c41 -21 50 -55 53 -198 l3 -127 -42 0 c-30 0 -43 4 -43 14 0 11 -8 10
-37 -5 -45 -23 -94 -24 -133 -4 -37 19 -50 43 -50 90 0 71 32 96 144 116 40 6
70 17 73 25 10 25 -17 44 -63 44 -38 0 -46 -4 -56 -25 -9 -20 -18 -25 -50 -25
-21 0 -38 5 -38 10 0 24 32 70 58 84 35 20 144 20 181 1z"/>
<path d="M550 1475 l0 -65 48 0 c73 0 121 17 128 45 14 58 -25 85 -122 85
l-54 0 0 -65z"/>
<path d="M550 1280 l0 -70 78 0 c93 0 122 15 122 63 0 59 -30 77 -129 77 l-71
0 0 -70z"/>
<path d="M1922 808 c6 -18 28 -21 28 -4 0 9 -7 16 -16 16 -9 0 -14 -5 -12 -12z"/>
<path d="M1340 620 l0 -60 59 0 c33 0 71 4 85 10 33 12 43 52 22 85 -15 23
-23 25 -91 25 l-75 0 0 -60z"/>
<path d="M1340 431 l0 -71 80 0 c67 0 83 3 100 20 25 25 26 61 2 90 -16 20
-31 24 -100 28 l-82 5 0 -72z"/>
<path d="M1826 431 c-65 -18 -88 -40 -70 -68 7 -11 26 -19 52 -21 52 -4 82 23
82 73 0 19 -1 34 -2 34 -2 -1 -30 -9 -62 -18z"/>
<path d="M1950 1598 c-19 -5 -41 -15 -49 -23 -11 -11 -10 -15 10 -26 13 -6 27
-17 31 -23 4 -6 8 -82 8 -169 0 -145 -2 -159 -20 -174 -39 -33 -17 -53 60 -53
76 0 102 23 59 51 -17 12 -20 23 -17 74 l3 60 59 -75 c32 -41 67 -83 78 -92
25 -22 78 -23 104 -3 19 15 19 16 0 28 -43 28 -79 63 -122 118 l-45 59 26 25
c14 15 41 33 60 41 62 25 41 54 -38 54 -59 0 -76 -13 -58 -42 13 -21 11 -25
-25 -56 l-39 -33 -3 135 c-3 152 0 148 -82 124z"/>
<path d="M2346 1587 c-22 -16 -18 -55 6 -71 26 -16 72 4 76 34 4 25 -20 50
-48 50 -9 0 -24 -6 -34 -13z"/>
<path d="M3160 1475 c-19 -10 -38 -11 -77 -4 -55 10 -113 0 -143 -24 -51 -40
-66 -116 -31 -158 19 -23 19 -24 -5 -46 -28 -25 -31 -55 -9 -77 14 -14 14 -18
-5 -44 -77 -105 173 -171 281 -74 39 36 48 88 21 122 -19 23 -26 25 -119 26
-124 0 -123 0 -123 24 0 18 7 20 61 20 108 0 163 47 158 134 -2 30 2 49 14 60
34 34 17 62 -23 41z m-88 -62 c25 -23 24 -87 -2 -113 -59 -59 -134 37 -84 108
18 26 60 29 86 5z m52 -286 c24 -18 14 -50 -20 -65 -34 -16 -116 -15 -138 1
-11 8 -17 23 -14 38 3 22 9 25 63 30 33 3 67 6 76 7 8 1 23 -4 33 -11z"/>
<path d="M1337 1466 c-79 -29 -122 -97 -115 -183 8 -91 73 -153 160 -153 71 0
148 43 148 82 0 23 -17 23 -55 -2 -46 -30 -100 -26 -136 10 -22 22 -29 37 -27
57 l3 28 107 3 c119 3 125 7 108 71 -12 45 -45 78 -91 91 -43 13 -56 12 -102
-4z m102 -62 c37 -47 29 -54 -54 -54 -83 0 -91 7 -54 54 15 19 30 26 54 26 24
0 39 -7 54 -26z"/>
<path d="M1657 1466 c-52 -19 -68 -35 -65 -65 4 -38 37 -38 73 -1 49 51 105
37 105 -27 l0 -33 -60 0 c-35 0 -74 -7 -90 -15 -32 -17 -60 -61 -60 -95 0 -29
27 -77 49 -90 29 -15 98 -12 133 6 29 15 32 15 43 0 25 -34 116 -9 102 28 -4
9 -13 16 -22 16 -12 0 -15 18 -15 109 0 125 -13 152 -78 171 -48 13 -69 12
-115 -4z m111 -212 c5 -66 -43 -95 -96 -58 -52 36 -12 108 58 102 33 -3 35 -5
38 -44z"/>
<path d="M2358 1464 c-58 -18 -68 -32 -37 -55 23 -17 24 -24 24 -119 0 -86 -3
-103 -17 -111 -22 -12 -23 -35 -2 -43 28 -11 110 -6 129 7 19 15 13 37 -11 37
-16 0 -16 1 -18 174 0 70 -5 120 -11 122 -5 1 -31 -4 -57 -12z"/>
<path d="M2675 1470 c-12 -4 -27 -15 -34 -24 -18 -22 -31 -20 -31 4 0 16 -7
20 -32 20 -63 0 -117 -50 -68 -63 19 -5 20 -13 20 -110 0 -97 -2 -106 -22
-121 -23 -15 -23 -16 -4 -31 12 -9 40 -15 67 -15 80 0 99 18 58 54 -20 17 -21
25 -16 98 4 64 10 84 28 104 48 51 93 22 104 -69 9 -78 -1 -134 -26 -140 -48
-13 1 -47 66 -47 19 0 46 5 61 10 l27 11 -23 24 c-19 21 -22 35 -24 123 -3
114 -16 145 -71 168 -38 16 -51 16 -80 4z"/>
<path d="M2303 735 c-39 -17 -42 -32 -8 -45 21 -8 25 -16 25 -49 l0 -40 -31
11 c-49 17 -116 5 -151 -28 -41 -39 -58 -82 -58 -151 0 -65 22 -110 65 -139
37 -24 106 -22 141 3 l28 21 11 -22 c12 -23 49 -24 94 -3 34 17 36 32 6 45
l-25 12 0 200 0 200 -32 0 c-18 -1 -48 -7 -65 -15z m-1 -182 c14 -13 18 -31
18 -92 0 -94 -15 -121 -66 -121 -46 0 -80 36 -88 94 -7 46 12 112 37 128 21
14 80 9 99 -9z"/>
</g>
</svg>
